#!OML:ASF F:\VICON\USERDATA\INSTALL\rory3\rory3.ASF
:FULLY-SPECIFIED
:DEGREES
116
root -0.459058 18.9954 33.0736 5.48654 -2.49628 2.05402
lowerback 13.1422 -2.97712 -3.54289
upperback -1.96736 -4.57115 -0.147473
thorax -9.23624 -2.01638 2.78136
lowerneck -4.75824 2.41897 -1.0233
upperneck -3.31848 3.25987 -0.369538
head -0.244073 1.63871 0.0894322
rclavicle -2.08475e-014 4.17448e-015
rhumerus -68.5094 7.75614 -86.2776
rradius 88.0969
rwrist -4.72658
rhand -44.6969 37.3096
rfingers 7.12502
rthumb -17.492 8.07658
lclavicle -2.08475e-014 4.17448e-015
lhumerus -19.381 -23.1536 87.5475
lradius 125.752
lwrist 23.0609
lhand -38.6759 11.29
lfingers 7.12502
lthumb -11.6911 40.9438
rfemur -41.7437 4.62397 17.5253
rtibia 45.1567
rfoot 9.34054 -5.95505
rtoes 2.4984
lfemur 29.4825 -4.92136 -28.3404
ltibia -6.67916e-014
lfoot 40.3547 0.823828
ltoes -3.70347
117
root -0.461732 19.0153 33.6222 5.43612 -2.78745 2.14792
lowerback 12.516 -2.92647 -3.43049
upperback -1.58607 -4.45313 -0.220207
thorax -8.48133 -1.99619 2.56022
lowerneck -5.21325 2.44939 -1.19661
upperneck -3.52775 3.31547 -0.168979
head -0.240835 1.66903 0.182801
rclavicle -3.43152e-014 -5.36719e-015
rhumerus -68.34 7.37361 -86.1631
rradius 88.4378
rwrist -5.07123
rhand -44.8364 36.5217
rfingers 7.12502
rthumb -17.6263 7.30068
lclavicle -3.43152e-014 -5.36719e-015
lhumerus -19.5554 -23.6723 87.6056
lradius 125.985
lwrist 21.7665
lhand -39.4911 9.45765
lfingers 7.12502
lthumb -12.4772 39.0652
rfemur -40.941 5.78797 16.8942
rtibia 40.3814
rfoot 10.042 -6.4126
rtoes 0.092272
lfemur 30.9471 -4.97407 -28.8913
ltibia -6.99722e-014
lfoot 39.8929 -0.789257
ltoes -6.15835
118
root -0.461142 19.028 34.1702 5.37434 -3.04868 2.78583
lowerback 12.2621 -2.90902 -3.85905
upperback -1.46661 -4.49633 -0.413609
thorax -8.18786 -2.01277 2.58006
lowerneck -5.58987 2.4748 -1.35848
upperneck -3.48375 3.3647 -0.0182229
head -0.172522 1.69523 0.261077
rclavicle -1.65985e-014 7.7526e-015
rhumerus -68.4689 7.31377 -86.1387
rradius 88.5544
rwrist -5.08495
rhand -45.1019 37.0778
rfingers 7.12502
rthumb -17.8817 7.87989
lclavicle -1.65985e-014 7.7526e-015
lhumerus -20.1819 -24.0461 87.8265
lradius 126.05
lwrist 20.395
lhand -39.2363 7.78925
lfingers 7.12502
lthumb -12.2315 37.4116
rfemur -40.1458 6.89632 15.6351
rtibia 35.9376
rfoot 10.689 -6.97708
rtoes -2.2944
lfemur 30.3396 -5.07213 -30.1472
ltibia 3.90825
lfoot 37.6939 -1.89058
ltoes -8.58498
119
root -0.45822 19.0281 34.7171 5.17167 -3.31408 3.76268
lowerback 12.0951 -2.84157 -4.56931
upperback -1.35763 -4.52644 -0.739972
thorax -7.94736 -2.01262 2.61985
lowerneck -5.67991 2.45849 -1.45101
upperneck -3.59629 3.34974 0.0664925
head -0.194924 1.6894 0.301811
rclavicle 6.88789e-014 -1.74931e-014
rhumerus -68.6642 7.10363 -86.1714
rradius 88.8917
rwrist -5.16888
rhand -45.3891 37.5091
rfingers 7.12502
rthumb -18.158 8.33665
lclavicle 6.88789e-014 -1.74931e-014
lhumerus -20.7156 -24.4429 87.9256
lradius 125.984
lwrist 19.1612
lhand -39.2534 6.50989
lfingers 7.12502
lthumb -12.248 36.1312
rfemur -39.2699 7.92063 14.071
rtibia 32.0076
rfoot 10.8439 -7.9665
rtoes -2.46099
lfemur 29.2959 -5.16756 -31.8174
ltibia 8.81967
lfoot 35.2627 -2.46939
ltoes -10.5423
120
root -0.454957 19.0201 35.251 5.014 -3.65171 4.27458
lowerback 12.0249 -2.74658 -4.83725
upperback -1.27497 -4.44669 -0.925675
thorax -7.81978 -1.97204 2.5509
lowerneck -5.62495 2.4495 -1.62595
upperneck -3.84411 3.34668 0.158179
head -0.283215 1.69123 0.354971
rclavicle -7.57867e-015 2.00773e-014
rhumerus -68.6196 6.92401 -86.2338
rradius 89.6248
rwrist -5.91636
rhand -45.3786 36.5065
rfingers 7.12502
rthumb -18.148 7.33311
lclavicle -7.57867e-015 2.00773e-014
lhumerus -21.3987 -24.5325 88.0463
lradius 125.633
lwrist 17.5519
lhand -40.0517 4.21995
lfingers 7.12502
lthumb -13.0176 33.7938
rfemur -38.5127 9.40732 12.8971
rtibia 28.6105
rfoot 10.076 -10.1191
rtoes -0.77994
lfemur 28.2017 -5.18819 -32.9534
ltibia 13.6436
lfoot 33.4282 -2.92108
ltoes -11.7153
121
root -0.450536 19.0023 35.777 4.89979 -4.01636 4.69212
lowerback 11.8555 -2.62548 -4.86549
upperback -1.14383 -4.2938 -1.18708
thorax -7.61183 -1.91162 2.24898
lowerneck -5.33395 2.39902 -1.80968
upperneck -4.4578 3.28602 0.368535
head -0.522611 1.66607 0.439453
rclavicle 1.96797e-014 1.5704e-014
rhumerus -68.3969 6.62899 -86.3689
rradius 90.2088
rwrist -6.32853
rhand -45.5343 35.1512
rfingers 7.12502
rthumb -18.2977 5.99178
lclavicle 1.96797e-014 1.5704e-014
lhumerus -22.3738 -24.7098 88.2764
lradius 125.364
lwrist 16.2671
lhand -39.9439 3.59047
lfingers 7.12502
lthumb -12.9137 33.1709
rfemur -37.7109 8.79966 12.847
rtibia 25.7375
rfoot 8.90395 -10.6382
rtoes -1.29204
lfemur 26.8243 -5.21911 -33.9338
ltibia 18.7269
lfoot 32.178 -3.44411
ltoes -12.5406
122
root -0.443712 18.9711 36.3182 4.66289 -4.34482 4.72912
lowerback 11.4303 -2.56551 -4.1939
upperback -1.04627 -4.11814 -1.55807
thorax -7.35018 -1.87211 1.42702
lowerneck -4.26534 2.40048 -1.88203
upperneck -5.24571 3.28104 0.691662
head -0.946051 1.66546 0.531935
rclavicle -6.79098e-014 -2.28602e-014
rhumerus -68.5281 6.27728 -86.8499
rradius 90.6113
rwrist -6.28472
rhand -45.8455 34.6803
rfingers 7.12502
rthumb -18.5971 5.54922
lclavicle -6.79098e-014 -2.28602e-014
lhumerus -24.0734 -24.8865 88.5803
lradius 125.012
lwrist 15.4488
lhand -39.4339 2.23812
lfingers 7.12502
lthumb -12.4221 31.849
rfemur -36.6462 8.30153 13.3602
rtibia 23.3367
rfoot 8.61694 -11.7178
rtoes -0.18187
lfemur 25.4631 -5.24468 -34.5046
ltibia 24.1027
lfoot 31.1441 -3.65789
ltoes -13.626
123
root -0.436597 18.9334 36.8577 4.34085 -4.57115 4.48052
lowerback 10.6888 -2.4642 -4.30615
upperback -0.0998204 -3.88414 -1.12496
thorax -5.89417 -1.79696 1.8377
lowerneck -5.83327 2.38855 -2.24423
upperneck -5.26744 3.30176 0.401144
head -0.698342 1.68498 0.521905
rclavicle 5.51379e-014 3.04141e-014
rhumerus -66.6674 6.61234 -86.2643
rradius 90.6198
rwrist -6.28188
rhand -45.973 34.9502
rfingers 7.12502
rthumb -18.7197 5.83091
lclavicle 5.51379e-014 3.04141e-014
lhumerus -23.8202 -24.3702 88.999
lradius 124.243
lwrist 14.9131
lhand -39.2141 2.67013
lfingers 7.12502
lthumb -12.2101 32.2937
rfemur -35.3682 7.78253 14.255
rtibia 21.5013
rfoot 7.77179 -13.1278
rtoes -0.781938
lfemur 24.099 -4.54351 -34.3599
ltibia 29.6076
lfoot 30.6737 -4.06901
ltoes -13.5841
124
root -0.423042 18.8851 37.3854 4.0247 -4.65279 4.2262
lowerback 10.8869 -2.4754 -3.74935
upperback 0.0543357 -3.82816 -1.0353
thorax -5.87498 -1.78656 1.61897
lowerneck -6.37641 2.34686 -2.27524
upperneck -4.93922 3.25514 0.166891
head -0.506003 1.66043 0.464075
rclavicle -1.26601e-014 -1.18277e-014
rhumerus -65.9868 6.88625 -86.2991
rradius 90.8057
rwrist -6.41526
rhand -45.8955 35.4446
rfingers 7.12502
rthumb -18.6452 6.31815
lclavicle -1.26601e-014 -1.18277e-014
lhumerus -25.1832 -24.1273 89.6324
lradius 123.596
lwrist 14.8866
lhand -39.1785 4.06019
lfingers 7.12502
lthumb -12.1758 33.6858
rfemur -33.9899 6.92341 15.3137
rtibia 19.9869
rfoot 8.6518 -14.4675
rtoes 0.911341
lfemur 22.5742 -3.86126 -34.0866
ltibia 35.2281
lfoot 30.9398 -4.19129
ltoes -10.1751
